Coordinates
version=1
nRows=17
nColumns=40
inDegrees=yes

Units are S.I. units (second, meters, Newtons, ...)
If the header above contains a line with 'inDegrees', this indicates whether rotational values are in degrees (yes) or radians (no).

endheader
time	pelvis_tilt	pelvis_list	pelvis_rotation	pelvis_tx	pelvis_ty	pelvis_tz	hip_flexion_r	hip_adduction_r	hip_rotation_r	knee_angle_r	knee_angle_r_beta	ankle_angle_r	subtalar_angle_r	mtp_angle_r	hip_flexion_l	hip_adduction_l	hip_rotation_l	knee_angle_l	knee_angle_l_beta	ankle_angle_l	subtalar_angle_l	mtp_angle_l	lumbar_extension	lumbar_bending	lumbar_rotation	arm_flex_r	arm_add_r	arm_rot_r	elbow_flex_r	pro_sup_r	wrist_flex_r	wrist_dev_r	arm_flex_l	arm_add_l	arm_rot_l	elbow_flex_l	pro_sup_l	wrist_flex_l	wrist_dev_l
      0.17000000	     -3.12971166	    -10.88043247	     89.94388638	      0.19390010	      0.94450266	      1.95834145	     40.68432531	     -2.16064458	     -5.47191192	      4.39031762	      0.07662550	      1.59587508	      0.00000000	      0.00000000	    -13.10516278	      5.63387438	      5.03766988	     -2.01934716	     -0.03524426	     12.89898307	      0.00000000	      0.00000000	     -0.41533348	     -4.15623720	     -5.89495029	      0.00000000	      0.00000000	      0.00000000	      0.00000000	      0.00000000	      0.00000000	      0.00000000	      0.00000000	      0.00000000	      0.00000000	      0.00000000	      0.00000000	      0.00000000	      0.00000000
      0.18000000	     -3.11633375	    -11.19236879	     89.94619929	      0.19467705	      0.94057003	      1.93795198	     41.00930291	     -1.93103533	     -4.70394931	      3.39074240	      0.05917962	      1.83787857	      0.00000000	      0.00000000	    -13.68933775	      5.51932413	      5.29415871	     -1.28493840	     -0.02242641	     12.75131844	      0.00000000	      0.00000000	     -0.01528218	     -4.11649961	     -5.82867642	      0.00000000	      0.00000000	      0.00000000	      0.00000000	      0.00000000	      0.00000000	      0.00000000	      0.00000000	      0.00000000	      0.00000000	      0.00000000	      0.00000000	      0.00000000	      0.00000000
      0.19000000	     -2.99595340	    -11.49870021	     89.94746476	      0.19544653	      0.93725546	      1.91738972	     41.27580434	     -1.60830105	     -4.00435168	      2.95833642	      0.05163271	      1.86946037	     -0.00000000	      0.00000000	    -14.04951871	      5.30990808	      5.30305974	     -0.19543581	     -0.00341100	     12.33794384	      0.00000000	      0.00000000	      0.37652190	     -3.94036036	     -5.68234669	      0.00000000	      0.00000000	     -0.00000000	      0.00000000	      0.00000000	      0.00000000	     -0.00000000	      0.00000000	      0.00000000	      0.00000000	      0.00000000	      0.00000000	      0.00000000	      0.00000000
      0.20000000	     -2.79335491	    -11.78250682	     89.94824858	      0.19620006	      0.93462090	      1.89661061	     41.51464320	     -1.22183814	     -3.58749292	      3.13693090	      0.05474977	      1.68126601	     -0.00000000	      0.00000000	    -14.23113163	      5.03291646	      5.33434381	      1.19314677	      0.02082434	     11.59703726	     -0.00000000	     -0.00000000	      0.75831525	     -3.66217838	     -5.49579253	     -0.00000000	      0.00000000	      0.00000000	      0.00000000	      0.00000000	     -0.00000000	      0.00000000	     -0.00000000	     -0.00000000	      0.00000000	      0.00000000	      0.00000000	      0.00000000	      0.00000000
      0.21000000	     -2.44945975	    -12.04889268	     89.94786083	      0.19700207	      0.93268536	      1.87563318	     41.64935477	     -0.69134705	     -3.16705825	      3.69756462	      0.06453468	      1.02421872	      0.00000000	      0.00000000	    -14.12060936	      4.61806047	      4.89276133	      3.03053012	      0.05289273	     10.35399254	      0.00000000	      0.00000000	      1.13173502	     -3.20826861	     -5.26153943	      0.00000000	      0.00000000	      0.00000000	      0.00000000	      0.00000000	      0.00000000	      0.00000000	      0.00000000	      0.00000000	      0.00000000	      0.00000000	      0.00000000	      0.00000000	      0.00000000
      0.22000000	     -2.05529574	    -12.21155906	     89.94693612	      0.19778857	      0.93158890	      1.85445429	     41.68752870	     -0.13320056	     -3.06174235	      4.71990820	      0.08237794	      0.03165374	      0.00000000	      0.00000000	    -13.83536480	      4.16250208	      4.44886548	      5.25860797	      0.09178002	      8.65179432	      0.00000000	      0.00000000	      1.39471723	     -2.70176255	     -5.00260280	      0.00000000	      0.00000000	      0.00000000	      0.00000000	      0.00000000	      0.00000000	      0.00000000	      0.00000000	      0.00000000	      0.00000000	      0.00000000	      0.00000000	      0.00000000	      0.00000000
      0.23000000	     -1.58288327	    -12.28214025	     89.94513185	      0.19854384	      0.93129584	      1.83309406	     41.61030153	      0.47722178	     -3.10730490	      6.04210610	      0.10545465	     -1.34069826	      0.00000000	      0.00000000	    -13.30165963	      3.62377395	      3.78391258	      7.95957448	      0.13892078	      6.38890849	      0.00000000	      0.00000000	      1.56979641	     -2.08605078	     -4.74568638	      0.00000000	      0.00000000	      0.00000000	      0.00000000	      0.00000000	      0.00000000	      0.00000000	      0.00000000	      0.00000000	      0.00000000	      0.00000000	      0.00000000	      0.00000000	      0.00000000
      0.24000000	     -1.00623309	    -12.25809701	     89.94242022	      0.19935864	      0.93176846	      1.81161354	     41.41033900	      1.16146274	     -3.25209644	      7.56385143	      0.13201411	     -3.01569353	      0.00000000	      0.00000000	    -12.50444518	      2.94469346	      2.91344062	     11.13999705	      0.19442963	      3.50783743	      0.00000000	      0.00000000	      1.64265482	     -1.36065579	     -4.46937858	      0.00000000	      0.00000000	      0.00000000	      0.00000000	      0.00000000	      0.00000000	      0.00000000	      0.00000000	      0.00000000	      0.00000000	      0.00000000	      0.00000000	      0.00000000	      0.00000000
      0.25000000	     -0.35150036	    -12.12871743	     89.93871143	      0.20021340	      0.93296844	      1.79009652	     41.06885803	      1.89164793	     -3.40219474	      9.19420841	      0.16046921	     -4.75724860	      0.00000000	      0.00000000	    -11.43752908	      2.14175900	      1.96750848	     14.82316349	      0.25871301	      0.06870651	      0.00000000	      0.00000000	      1.60090456	     -0.54861264	     -4.18048086	      0.00000000	      0.00000000	      0.00000000	      0.00000000	      0.00000000	      0.00000000	      0.00000000	      0.00000000	      0.00000000	      0.00000000	      0.00000000	      0.00000000	      0.00000000	      0.00000000
      0.26000000	      0.33242487	    -11.87954738	     89.93391783	      0.20107788	      0.93483821	      1.76869147	     40.58099992	      2.62006252	     -3.48764581	     10.89603514	      0.19017169	     -6.30213035	     -0.00000000	      0.00000000	    -10.13123992	      1.25557790	      1.07141362	     18.95638481	      0.33085133	     -3.81975370	      0.00000000	      0.00000000	      1.40695332	      0.28599662	     -3.89611289	     -0.00000000	      0.00000000	      0.00000000	      0.00000000	      0.00000000	     -0.00000000	      0.00000000	     -0.00000000	      0.00000000	     -0.00000000	      0.00000000	      0.00000000	      0.00000000	      0.00000000
      0.27000000	      1.06510171	    -11.55339875	     89.92809233	      0.20199054	      0.93722370	      1.74748613	     39.97569103	      3.37782316	     -3.48651539	     12.60286154	      0.21996143	     -7.48655796	      0.00000000	      0.00000000	     -8.57923840	      0.27268527	      0.32512848	     23.45177983	      0.40931077	     -7.89611462	      0.00000000	      0.00000000	      1.10829453	      1.16072112	     -3.61661440	      0.00000000	      0.00000000	      0.00000000	      0.00000000	      0.00000000	      0.00000000	      0.00000000	      0.00000000	      0.00000000	      0.00000000	      0.00000000	      0.00000000	      0.00000000	      0.00000000
      0.28000000	      1.78642157	    -11.12190790	     89.92073744	      0.20291443	      0.94005177	      1.72659383	     39.22848765	      4.11485619	     -3.38365448	     14.30577683	      0.24968291	     -8.15483380	     -0.00000000	      0.00000000	     -6.88181373	     -0.72950375	     -0.22068501	     28.14295794	      0.49118728	    -11.88615665	     -0.00000000	      0.00000000	      0.65838818	      2.00390687	     -3.37112833	     -0.00000000	     -0.00000000	      0.00000000	      0.00000000	      0.00000000	      0.00000000	     -0.00000000	      0.00000000	      0.00000000	      0.00000000	      0.00000000	      0.00000000	      0.00000000	      0.00000000
      0.29000000	      2.54106801	    -10.75603005	     89.91254273	      0.20386759	      0.94307291	      1.70605945	     38.46832090	      4.89478027	     -3.18994283	     15.88670919	      0.27727538	     -8.31414707	      0.00000000	      0.00000000	     -4.91278616	     -1.75579841	     -0.46896601	     32.90640041	      0.57432503	    -15.44209914	      0.00000000	      0.00000000	      0.28028711	      2.87305977	     -3.12219808	      0.00000000	      0.00000000	      0.00000000	      0.00000000	      0.00000000	      0.00000000	      0.00000000	      0.00000000	      0.00000000	      0.00000000	      0.00000000	      0.00000000	      0.00000000	      0.00000000
      0.30000000	      3.21242004	    -10.30915129	     89.90107110	      0.20480029	      0.94641415	      1.68588676	     37.54722091	      5.60342384	     -2.91493292	     17.37175494	      0.30319432	     -7.95105551	      0.00000000	     -0.00000000	     -2.92147828	     -2.70586993	     -0.60024145	     37.51022054	      0.65467685	    -18.33909437	      0.00000000	     -0.00000000	     -0.22901687	      3.62188923	     -2.88371115	     -0.00000000	      0.00000000	     -0.00000000	      0.00000000	      0.00000000	     -0.00000000	     -0.00000000	      0.00000000	      0.00000000	      0.00000000	      0.00000000	      0.00000000	      0.00000000	      0.00000000
      0.31000000	      3.84921399	     -9.89635857	     89.89060788	      0.20575951	      0.94992132	      1.66606279	     36.50838855	      6.28458953	     -2.74380497	     18.57389379	      0.32417560	     -7.16835463	      0.00000000	      0.00000000	     -0.83560337	     -3.58457563	     -0.51143083	     41.86148055	      0.73062067	    -20.28747267	      0.00000000	      0.00000000	     -0.69606382	      4.31480161	     -2.75381813	      0.00000000	      0.00000000	      0.00000000	      0.00000000	      0.00000000	      0.00000000	      0.00000000	      0.00000000	      0.00000000	      0.00000000	      0.00000000	      0.00000000	      0.00000000	      0.00000000
      0.32000000	      4.24028349	     -9.80211962	     89.87655429	      0.20661294	      0.95314742	      1.64689549	     35.73577458	      6.74437984	     -2.44229614	     19.64353092	      0.34284429	     -6.17242299	      0.00000000	      0.00000000	      1.68288624	     -4.15441048	     -0.27024042	     45.94150710	      0.80183056	    -21.09447575	      0.00000000	      0.00000000	     -0.81710862	      4.72048454	     -2.62794124	      0.00000000	      0.00000000	      0.00000000	      0.00000000	      0.00000000	      0.00000000	      0.00000000	      0.00000000	      0.00000000	      0.00000000	      0.00000000	      0.00000000	      0.00000000	      0.00000000
      0.33000000	      4.60495081	     -9.41768683	     89.86030896	      0.20756203	      0.95709432	      1.62770107	     34.38693552	      7.18866364	     -2.32560315	     20.26389414	      0.35367167	     -4.88848797	      0.00000000	     -0.00000000	      3.76549203	     -4.72747020	     -0.12379420	     49.38083114	      0.86185809	    -21.28711883	     -0.00000000	      0.00000000	     -1.27623301	      5.06482106	     -2.53268995	     -0.00000000	      0.00000000	     -0.00000000	      0.00000000	      0.00000000	     -0.00000000	      0.00000000	      0.00000000	      0.00000000	      0.00000000	      0.00000000	      0.00000000	      0.00000000	     -0.00000000
